<mxfile host="app.diagrams.net" agent="Mozilla/5.0 (Macintosh; Intel Mac OS X 10_15_7) AppleWebKit/537.36 (KHTML, like Gecko) Chrome/128.0.0.0 Safari/537.36" version="24.7.8">
  <diagram name="第 1 页" id="hu94sChp5Nwv9NMQ4qGQ">
    <mxGraphModel dx="600" dy="354" grid="1" gridSize="10" guides="1" tooltips="1" connect="1" arrows="1" fold="1" page="1" pageScale="1" pageWidth="827" pageHeight="1169" math="0" shadow="0">
      <root>
        <mxCell id="0" />
        <mxCell id="1" parent="0" />
        <mxCell id="h6thX4ukBZBrdmgKfg7K-1" value="ITS编辑器" style="shape=umlLifeline;perimeter=lifelinePerimeter;whiteSpace=wrap;html=1;container=1;dropTarget=0;collapsible=0;recursiveResize=0;outlineConnect=0;portConstraint=eastwest;newEdgeStyle={&quot;curved&quot;:0,&quot;rounded&quot;:0};" vertex="1" parent="1">
          <mxGeometry x="140" y="180" width="100" height="490" as="geometry" />
        </mxCell>
        <mxCell id="h6thX4ukBZBrdmgKfg7K-2" value="配齐互动插件" style="shape=umlLifeline;perimeter=lifelinePerimeter;whiteSpace=wrap;html=1;container=1;dropTarget=0;collapsible=0;recursiveResize=0;outlineConnect=0;portConstraint=eastwest;newEdgeStyle={&quot;curved&quot;:0,&quot;rounded&quot;:0};" vertex="1" parent="1">
          <mxGeometry x="320" y="180" width="100" height="490" as="geometry" />
        </mxCell>
        <mxCell id="h6thX4ukBZBrdmgKfg7K-3" value="ITS后端" style="shape=umlLifeline;perimeter=lifelinePerimeter;whiteSpace=wrap;html=1;container=1;dropTarget=0;collapsible=0;recursiveResize=0;outlineConnect=0;portConstraint=eastwest;newEdgeStyle={&quot;curved&quot;:0,&quot;rounded&quot;:0};" vertex="1" parent="1">
          <mxGeometry x="500" y="180" width="100" height="490" as="geometry" />
        </mxCell>
        <mxCell id="h6thX4ukBZBrdmgKfg7K-4" value="配齐后端" style="shape=umlLifeline;perimeter=lifelinePerimeter;whiteSpace=wrap;html=1;container=1;dropTarget=0;collapsible=0;recursiveResize=0;outlineConnect=0;portConstraint=eastwest;newEdgeStyle={&quot;curved&quot;:0,&quot;rounded&quot;:0};" vertex="1" parent="1">
          <mxGeometry x="680" y="180" width="100" height="490" as="geometry" />
        </mxCell>
        <mxCell id="h6thX4ukBZBrdmgKfg7K-5" value="" style="rounded=0;whiteSpace=wrap;html=1;" vertex="1" parent="1">
          <mxGeometry x="185" y="260" width="10" height="200" as="geometry" />
        </mxCell>
        <mxCell id="h6thX4ukBZBrdmgKfg7K-6" value="" style="rounded=0;whiteSpace=wrap;html=1;" vertex="1" parent="1">
          <mxGeometry x="365" y="420" width="10" height="100" as="geometry" />
        </mxCell>
        <mxCell id="h6thX4ukBZBrdmgKfg7K-7" value="" style="endArrow=classic;html=1;rounded=0;" edge="1" parent="1">
          <mxGeometry width="50" height="50" relative="1" as="geometry">
            <mxPoint x="195" y="260" as="sourcePoint" />
            <mxPoint x="545" y="260" as="targetPoint" />
          </mxGeometry>
        </mxCell>
        <mxCell id="h6thX4ukBZBrdmgKfg7K-9" value="获取配齐Token" style="edgeLabel;html=1;align=center;verticalAlign=middle;resizable=0;points=[];" vertex="1" connectable="0" parent="h6thX4ukBZBrdmgKfg7K-7">
          <mxGeometry x="0.3396" y="2" relative="1" as="geometry">
            <mxPoint x="-139" y="-8" as="offset" />
          </mxGeometry>
        </mxCell>
        <mxCell id="h6thX4ukBZBrdmgKfg7K-8" value="" style="rounded=0;whiteSpace=wrap;html=1;" vertex="1" parent="1">
          <mxGeometry x="545" y="260" width="10" height="120" as="geometry" />
        </mxCell>
        <mxCell id="h6thX4ukBZBrdmgKfg7K-10" value="" style="endArrow=classic;html=1;rounded=0;" edge="1" parent="1">
          <mxGeometry width="50" height="50" relative="1" as="geometry">
            <mxPoint x="556" y="300" as="sourcePoint" />
            <mxPoint x="725" y="300" as="targetPoint" />
          </mxGeometry>
        </mxCell>
        <mxCell id="h6thX4ukBZBrdmgKfg7K-11" value="获取配齐Token" style="edgeLabel;html=1;align=center;verticalAlign=middle;resizable=0;points=[];" vertex="1" connectable="0" parent="h6thX4ukBZBrdmgKfg7K-10">
          <mxGeometry x="0.3396" y="2" relative="1" as="geometry">
            <mxPoint x="-29" y="-8" as="offset" />
          </mxGeometry>
        </mxCell>
        <mxCell id="h6thX4ukBZBrdmgKfg7K-12" value="" style="rounded=0;whiteSpace=wrap;html=1;" vertex="1" parent="1">
          <mxGeometry x="725" y="300" width="10" height="40" as="geometry" />
        </mxCell>
        <mxCell id="h6thX4ukBZBrdmgKfg7K-13" value="" style="endArrow=classic;html=1;rounded=0;dashed=1;" edge="1" parent="1">
          <mxGeometry width="50" height="50" relative="1" as="geometry">
            <mxPoint x="725" y="340" as="sourcePoint" />
            <mxPoint x="555" y="340" as="targetPoint" />
          </mxGeometry>
        </mxCell>
        <mxCell id="h6thX4ukBZBrdmgKfg7K-14" value="返回" style="edgeLabel;html=1;align=center;verticalAlign=middle;resizable=0;points=[];" vertex="1" connectable="0" parent="h6thX4ukBZBrdmgKfg7K-13">
          <mxGeometry x="-0.0773" y="-1" relative="1" as="geometry">
            <mxPoint y="-9" as="offset" />
          </mxGeometry>
        </mxCell>
        <mxCell id="h6thX4ukBZBrdmgKfg7K-15" value="" style="endArrow=classic;html=1;rounded=0;dashed=1;" edge="1" parent="1">
          <mxGeometry width="50" height="50" relative="1" as="geometry">
            <mxPoint x="545" y="380" as="sourcePoint" />
            <mxPoint x="196" y="380" as="targetPoint" />
          </mxGeometry>
        </mxCell>
        <mxCell id="h6thX4ukBZBrdmgKfg7K-16" value="返回" style="edgeLabel;html=1;align=center;verticalAlign=middle;resizable=0;points=[];" vertex="1" connectable="0" parent="h6thX4ukBZBrdmgKfg7K-15">
          <mxGeometry x="-0.0773" y="-1" relative="1" as="geometry">
            <mxPoint y="-9" as="offset" />
          </mxGeometry>
        </mxCell>
        <mxCell id="h6thX4ukBZBrdmgKfg7K-17" value="" style="endArrow=classic;html=1;rounded=0;" edge="1" parent="1">
          <mxGeometry width="50" height="50" relative="1" as="geometry">
            <mxPoint x="196" y="420" as="sourcePoint" />
            <mxPoint x="365" y="420" as="targetPoint" />
          </mxGeometry>
        </mxCell>
        <mxCell id="h6thX4ukBZBrdmgKfg7K-18" value="初始化互动插件" style="edgeLabel;html=1;align=center;verticalAlign=middle;resizable=0;points=[];" vertex="1" connectable="0" parent="h6thX4ukBZBrdmgKfg7K-17">
          <mxGeometry x="0.3396" y="2" relative="1" as="geometry">
            <mxPoint x="-29" y="-8" as="offset" />
          </mxGeometry>
        </mxCell>
        <mxCell id="h6thX4ukBZBrdmgKfg7K-19" value="" style="endArrow=classic;html=1;rounded=0;dashed=1;" edge="1" parent="1">
          <mxGeometry width="50" height="50" relative="1" as="geometry">
            <mxPoint x="365" y="460" as="sourcePoint" />
            <mxPoint x="195" y="460" as="targetPoint" />
          </mxGeometry>
        </mxCell>
        <mxCell id="h6thX4ukBZBrdmgKfg7K-20" value="返回" style="edgeLabel;html=1;align=center;verticalAlign=middle;resizable=0;points=[];" vertex="1" connectable="0" parent="h6thX4ukBZBrdmgKfg7K-19">
          <mxGeometry x="-0.0773" y="-1" relative="1" as="geometry">
            <mxPoint y="-9" as="offset" />
          </mxGeometry>
        </mxCell>
      </root>
    </mxGraphModel>
  </diagram>
</mxfile>
